<?xml version="1.0" encoding="UTF-8" standalone="no"?>
<svg
   xmlns:dc="http://purl.org/dc/elements/1.1/"
   xmlns:cc="http://creativecommons.org/ns#"
   xmlns:rdf="http://www.w3.org/1999/02/22-rdf-syntax-ns#"
   xmlns:svg="http://www.w3.org/2000/svg"
   xmlns="http://www.w3.org/2000/svg"
   xmlns:sodipodi="http://sodipodi.sourceforge.net/DTD/sodipodi-0.dtd"
   xmlns:inkscape="http://www.inkscape.org/namespaces/inkscape"
   version="1.1"
   id="svg4171"
   viewBox="0 0 31.999999 40"
   height="11.288889mm"
   width="9.0311108mm"
   inkscape:version="0.91 r13725"
   sodipodi:docname="spoonser.svg">
  <sodipodi:namedview
     pagecolor="#ffffff"
     bordercolor="#666666"
     borderopacity="1"
     objecttolerance="10"
     gridtolerance="10"
     guidetolerance="10"
     inkscape:pageopacity="0"
     inkscape:pageshadow="2"
     inkscape:window-width="1872"
     inkscape:window-height="1056"
     id="namedview8"
     showgrid="false"
     inkscape:zoom="5.9"
     inkscape:cx="15.999999"
     inkscape:cy="20"
     inkscape:window-x="48"
     inkscape:window-y="0"
     inkscape:window-maximized="1"
     inkscape:current-layer="svg4171" />
  <defs
     id="defs4173" />
  <metadata
     id="metadata4176">
    <rdf:RDF>
      <cc:Work
         rdf:about="">
        <dc:format>image/svg+xml</dc:format>
        <dc:type
           rdf:resource="http://purl.org/dc/dcmitype/StillImage" />
        <dc:title />
      </cc:Work>
    </rdf:RDF>
  </metadata>
  <g
     transform="translate(-338.28571,-426.64792)"
     id="layer1"
     style="fill:#7e9189;fill-opacity:1">
    <g
       id="g3398"
       transform="matrix(2,0,0,2,330.28571,422.64792)"
       style="fill:#7e9189;fill-opacity:1">
      <path
         id="path3403"
         transform="scale(0.5,0.5)"
         d="M 12,4 C 9.8,4 8,5.8 8,8 l 0,32 c 0,2.2 1.8,4 4,4 l 24,0 c 2.2,0 4,-1.8 4,-4 L 40,8 C 40,5.8 38.2,4 36,4 Z m 2.003906,4 3.992188,0 0,13.802734 c 1.583919,0.579828 2.751953,2.454525 2.751953,4.703125 0.007,2.708218 -2.05949,4.898438 -4.689453,4.898438 -2.629963,0 -4.813712,-2.19022 -4.806641,-4.898438 0,-2.2486 1.168034,-4.123297 2.751953,-4.703125 z"
         style="fill:#7e9189;fill-opacity:1" />
    </g>
  </g>
</svg>
